<?xml version="1.0" encoding="UTF-8" standalone="no"?>
<svg
   width="40.184299"
   height="40.06255"
   viewBox="0 0 40.184299 40.06255"
   fill="none"
   version="1.1"
   id="svg11"
   sodipodi:docname="KnetMiner_logo.svg"
   inkscape:version="1.4.4 (1:1.4.4+202605061432+dcaf3e7d9e)"
   xmlns:inkscape="http://www.inkscape.org/namespaces/inkscape"
   xmlns:sodipodi="http://sodipodi.sourceforge.net/DTD/sodipodi-0.dtd"
   xmlns="http://www.w3.org/2000/svg"
   xmlns:svg="http://www.w3.org/2000/svg">
  <sodipodi:namedview
     id="namedview11"
     pagecolor="#ffffff"
     bordercolor="#000000"
     borderopacity="0.25"
     inkscape:showpageshadow="2"
     inkscape:pageopacity="0.0"
     inkscape:pagecheckerboard="0"
     inkscape:deskcolor="#d1d1d1"
     inkscape:zoom="3.4162881"
     inkscape:cx="53.859626"
     inkscape:cy="12.147687"
     inkscape:window-width="1920"
     inkscape:window-height="1002"
     inkscape:window-x="0"
     inkscape:window-y="41"
     inkscape:window-maximized="1"
     inkscape:current-layer="g11" />
  <g
     clip-path="url(#clip0_2002_1183)"
     id="g11"
     transform="translate(0,-0.46875)">
    <path
       d="m 10.8623,40.4688 c 0,0 0.0628,0 0.1256,0.0625 H 1.25576 c 0,-0.6875 -0.565092,-1.25 -1.25576,-1.25 v -7.0625 c 0.502304,0 0.941819,-0.0625 1.44412,-0.1875 1.69528,3 4.7091,6.75 9.41818,8.4375 z M 26.8105,29.6562 c -1.3814,0 -2.5116,-1.125 -2.5116,-2.5 0,-0.0624 0,-0.1874 0,-0.2499 -2.1975,-0.3125 -4.0812,0.1875 -5.7765,0.6875 -0.5023,0.125 -0.9418,0.25 -1.4441,0.375 -0.3767,1.6875 -1.8836,2.9375 -3.7045,2.9375 -2.072,0 -3.76724,-1.6875 -3.76724,-3.7501 0,-0.5 0.06279,-0.9374 0.25115,-1.3749 C 7.2834,22.9063 4.45795,16.9688 0.816243,5.46875 0.565092,5.53125 0.31394,5.53125 0,5.53125 v 7.06255 c 0.690668,0 1.25576,0.5625 1.25576,1.25 0,0.6875 -0.565092,1.25 -1.25576,1.25 v 7.0624 c 2.76267,0 5.02304,2.25 5.02304,5 0,1.8126 -0.94182,3.3751 -2.38595,4.2501 1.63249,2.8125 4.39516,6.25 8.60191,7.8125 0.4396,-0.75 1.2558,-1.25 2.1976,-1.25 1.3814,0 2.5115,1.125 2.5115,2.5 h 7.0951 c 0,-2.0625 1.6953,-3.75 3.7673,-3.75 0.0627,0 0.0627,0 0.1255,0 0.3768,-2.8125 0.3768,-5.125 0,-7.125 -0.0628,0.0625 -0.1255,0.0624 -0.1255,0.0624 z m 1.9464,-0.9374 c -0.1884,0.25 -0.4395,0.4374 -0.6907,0.625 0.3767,2.125 0.4395,4.6875 0,7.6875 1.4441,0.5625 2.386,1.9375 2.386,3.5 h 4.7091 c 0,-1.5 0.6278,-2.8125 1.6324,-3.6875 -3.0766,-4.125 -5.7137,-6.625 -8.0368,-8.125 z m -15.3831,-5.25 c 1.8837,0 3.5162,1.4375 3.7045,3.25 0.314,-0.0625 0.6907,-0.1875 1.0046,-0.3125 1.9465,-0.5625 4.0813,-1.1875 6.5928,-0.75 0.1255,-0.1875 0.3139,-0.375 0.5023,-0.5 -1.8209,-3.125 -4.7719,-4.875 -7.3462,-6.4375 -1.4441,-0.8125 -2.6999,-1.625 -3.7045,-2.5625 -0.2512,0.125 -0.5651,0.125 -0.8163,0.125 -1.3813,0 -2.5115,-1.125 -2.5115,-2.5 0,-0.875 0.4395,-1.625 1.1302,-2.0625 -0.6279,-2.68755 -0.4395,-5.43755 -0.1256,-7.56255 -1.3185,-0.5625 -2.26033,-1.875 -2.26033,-3.4375 0,-0.125 0,-0.1875 0,-0.25 H 5.02304 c 0,2.0625 -1.25576,3.8125 -2.95104,4.5625 3.51613,11.12505 6.15322,16.87495 8.5392,19.62495 0.6906,-0.6874 1.6325,-1.1874 2.7626,-1.1874 z M 38.9285,0.53125 H 29.322 c 0,0.0625 0,0.1875 0,0.25 0,1.375 -1.1302,2.5 -2.5115,2.5 -0.0628,0 -0.1256,0 -0.2512,0 -0.8162,2.875 -1.1302,5.1875 -0.879,7.00005 0.3767,-0.125 0.7534,-0.1875 1.1302,-0.1875 2.072,0 3.7672,1.6875 3.7672,3.75 0,0.4375 -0.0628,0.875 -0.1883,1.25 1.5697,0.1875 3.3277,0 4.8974,-0.375 -0.1255,-0.25 -0.1255,-0.5625 -0.1255,-0.875 0,-2.75 2.2603,-5.00005 5.023,-5.00005 v -7.0625 c -0.6907,0 -1.2558,-0.5625 -1.2558,-1.25 z M 35.6008,15.9688 c -1.2558,0.25 -2.6371,0.5 -3.9557,0.5 -0.6906,0 -1.3185,-0.0625 -1.9464,-0.1875 -0.6907,0.8125 -1.7581,1.3125 -2.8882,1.3125 -2.072,0 -3.7673,-1.6875 -3.7673,-3.75 0,-1.1875 0.5651,-2.3125 1.4441,-3 -0.3139,-2.12505 -0.0628,-4.75005 0.879,-8.00005 -0.6906,-0.4375 -1.1301,-1.1875 -1.1301,-2.0625 0,-0.125 0,-0.1875 0,-0.25 h -7.0951 c 0,0.0625 0,0.1875 0,0.25 0,2.0625 -1.6953,3.75 -3.7673,3.75 -0.1255,0 -0.1883,0 -0.3139,0 -0.3139,1.9375 -0.4395,4.4375 0.0628,6.81255 0.0628,0 0.1256,0 0.1883,0 1.3814,0 2.5116,1.125 2.5116,2.5 0,0.625 -0.2512,1.1875 -0.6279,1.625 0.879,0.75 2.072,1.4375 3.3277,2.1875 2.7627,1.625 5.9649,3.5 7.9741,7.0625 0.1256,0 0.1884,0 0.314,0 1.3813,0 2.5115,1.125 2.5115,2.5 0,0.125 0,0.25 0,0.3125 2.4487,1.5625 5.2742,4.25 8.5391,8.625 0.6907,-0.375 1.507,-0.5625 2.3232,-0.5625 v -7.125 c -0.6907,0 -1.2558,-0.5625 -1.2558,-1.25 0,-0.6875 0.5651,-1.25 1.2558,-1.25 v -7.125 c -2.0092,0 -3.7673,-1.1875 -4.5835,-2.875 z"
       fill="#51ce7b"
       id="path1" />
    <path
       d="m 63.7293,20.5928 7.5974,7.9375 v 0.1875 h -3.7045 l -6.5928,-7 v 7 h -3.0138 v -15.75 h 3.0138 v 6.6875 l 6.0277,-6.6875 h 3.7045 v 0.0625 z"
       fill="#ffffff"
       id="path2" />
    <path
       d="m 80.3075,22.9053 c 0,-1.6875 -0.9418,-3 -2.6998,-3 -1.6953,0 -2.8255,1.4375 -2.8255,3.125 v 5.6875 h -2.7627 v -11.125 h 2.4488 l 0.1883,1.5 c 1.1302,-1.125 2.2604,-1.6875 3.6417,-1.6875 2.6371,0 4.7091,1.9375 4.7091,5.4375 v 5.8125 h -2.7626 v -5.75 z"
       fill="#ffffff"
       id="path3" />
    <path
       d="m 90.9774,26.5303 c 1.0046,0 2.3232,-0.375 3.0139,-1.0625 l 1.758,1.75 c -1.1929,1.1875 -3.0766,1.8125 -4.7719,1.8125 -3.83,0 -6.1532,-2.375 -6.1532,-5.9375 0,-3.375 2.3232,-5.8125 5.9021,-5.8125 3.4533,0 5.6509,1.9375 5.6509,5.8125 0,0.3125 0,0.6875 -0.0628,1.0625 h -8.7275 c 0.2511,1.375 1.4441,2.375 3.3905,2.375 z m -0.1883,-6.8125 c -1.5069,0 -2.6999,0.75 -3.1394,2.1875 h 6.0276 c -0.1255,-1.4375 -1.2557,-2.1875 -2.8882,-2.1875 z"
       fill="#ffffff"
       id="path4" />
    <path
       d="m 101.78,17.6553 h 3.077 v 2.375 h -3.077 v 4.8125 c 0,1.0625 0.565,1.5625 1.444,1.5625 0.44,0 0.942,-0.125 1.319,-0.3125 l 0.753,2.3125 c -0.879,0.3125 -1.57,0.5 -2.511,0.5 -2.261,0 -3.7677,-1.375 -3.7677,-4.0625 v -4.8125 h -2.072 v -2.375 h 2.072 v -2.875 l 2.7627,-0.3125 z"
       fill="#ffffff"
       id="path5" />
    <path
       d="m 115.653,24.1553 h -0.565 l -5.023,-6.875 v 11.4375 h -3.014 v -15.75 h 3.453 l 4.96,6.75 4.961,-6.75 h 3.39 v 15.75 h -3.014 v -11.375 z"
       fill="#ffffff"
       id="path6" />
    <path
       d="m 127.648,12.9053 c 0.816,0 1.633,0.5 1.633,1.625 0,1.0625 -0.817,1.625 -1.633,1.625 -0.816,0 -1.632,-0.5625 -1.632,-1.625 0,-1.125 0.816,-1.625 1.632,-1.625 z m -1.381,15.8125 h 2.762 v -11.125 h -2.762 z"
       fill="#ffffff"
       id="path7" />
    <path
       d="m 139.577,22.9053 c 0,-1.6875 -0.942,-3 -2.7,-3 -1.695,0 -2.825,1.4375 -2.825,3.125 v 5.6875 h -2.763 v -11.125 h 2.449 l 0.188,1.5 c 1.13,-1.125 2.261,-1.6875 3.642,-1.6875 2.637,0 4.709,1.9375 4.709,5.4375 v 5.8125 h -2.763 v -5.75 z"
       fill="#ffffff"
       id="path8" />
    <path
       d="m 150.251,26.5303 c 1.004,0 2.323,-0.375 3.014,-1.0625 l 1.758,1.75 c -1.193,1.1875 -3.077,1.8125 -4.772,1.8125 -3.83,0 -6.153,-2.375 -6.153,-5.9375 0,-3.375 2.323,-5.8125 5.902,-5.8125 3.453,0 5.651,1.9375 5.651,5.8125 0,0.3125 0,0.6875 -0.063,1.0625 h -8.728 c 0.251,1.375 1.507,2.375 3.391,2.375 z m -0.126,-6.8125 c -1.507,0 -2.7,0.75 -3.139,2.1875 h 6.028 c -0.189,-1.4375 -1.319,-2.1875 -2.889,-2.1875 z"
       fill="#ffffff"
       id="path9" />
    <path
       d="m 160.423,18.9053 c 0.879,-1.375 2.009,-1.5625 3.139,-1.5625 1.13,0 2.261,0.4375 2.888,1.0625 l -1.255,2.375 c -0.565,-0.5 -1.068,-0.75 -2.01,-0.75 -1.444,0 -2.762,0.75 -2.762,2.8125 v 5.875 H 157.66 V 17.6553 h 2.574 z"
       fill="#ffffff"
       id="path10" />
    <path
       d="m 166.697,25.2725 c 1.109,0 1.841,0.7107 1.841,1.8092 0,1.0855 -0.732,1.8092 -1.841,1.8092 -1.11,0 -1.842,-0.7237 -1.842,-1.8092 0,-1.0985 0.732,-1.8092 1.842,-1.8092 z m 0,3.1273 c 0.809,0 1.318,-0.5169 1.318,-1.3181 0,-0.8013 -0.509,-1.3311 -1.318,-1.3311 -0.81,0 -1.319,0.5298 -1.319,1.3311 0,0.8012 0.509,1.3181 1.319,1.3181 z m 0.835,-1.6283 c 0,0.2456 -0.143,0.4523 -0.365,0.5428 l 0.352,0.6591 h -0.483 l -0.313,-0.5945 h -0.314 v 0.5945 h -0.431 v -1.8093 h 0.875 c 0.405,0 0.679,0.2456 0.679,0.6074 z m -0.666,-0.2067 h -0.457 v 0.4264 h 0.457 c 0.157,0 0.248,-0.0904 0.248,-0.2197 0,-0.1163 -0.091,-0.2067 -0.248,-0.2067 z"
       fill="#ffffff"
       id="path11" />
  </g>
  <defs
     id="defs11">
    <clipPath
       id="clip0_2002_1183">
      <rect
         width="168.53799"
         height="40.0625"
         fill="#ffffff"
         transform="translate(0,0.46875)"
         id="rect11"
         x="0"
         y="0" />
    </clipPath>
  </defs>
</svg>
